<?xml version="1.0" standalone="no"?>
<!DOCTYPE svg PUBLIC "-//W3C//DTD SVG 20010904//EN"
 "http://www.w3.org/TR/2001/REC-SVG-20010904/DTD/svg10.dtd">
<svg version="1.0" xmlns="http://www.w3.org/2000/svg"
 width="336.000000pt" height="140.000000pt" viewBox="0 0 336.000000 140.000000"
 preserveAspectRatio="xMidYMid meet">

<g transform="translate(0.000000,140.000000) scale(0.100000,-0.100000)"
fill="#000000" stroke="none">
<path d="M1200 1364 c-166 -45 -234 -151 -120 -189 l35 -12 3 -181 c1 -100 -1
-182 -6 -182 -17 0 -647 100 -665 106 -16 5 -16 7 -2 27 23 33 19 98 -8 135
-47 64 -132 111 -166 93 -28 -15 -31 -32 -31 -152 0 -101 -1 -109 -19 -109
-11 0 -22 -6 -24 -12 -3 -8 -6 -6 -6 5 -1 27 -36 20 -75 -16 -32 -31 -34 -36
-29 -78 3 -24 11 -65 18 -91 7 -30 8 -45 2 -41 -7 4 -7 -1 -2 -13 26 -61 34
-398 10 -445 -13 -25 -19 -28 -35 -19 -50 27 -53 113 -10 289 17 69 29 129 27
134 -5 16 -57 -164 -72 -252 -24 -135 -1 -201 69 -201 42 0 83 39 92 88 4 19
4 71 1 116 l-6 81 18 -53 c10 -30 25 -60 32 -66 14 -13 247 -86 499 -156 389
-108 838 -150 1266 -118 160 12 164 11 385 -20 124 -18 265 -32 315 -32 82 0
94 3 135 28 57 36 107 96 169 197 61 101 165 310 197 395 36 96 47 110 89 110
48 0 74 16 74 45 0 37 -46 68 -89 60 -59 -11 -150 -64 -196 -112 l-43 -46
-273 -1 c-151 -1 -363 5 -471 13 l-198 14 0 256 0 256 31 17 c22 13 30 24 27
40 -7 54 -148 83 -473 98 -293 13 -409 12 -475 -6z m467 -24 c212 -9 323 -24
388 -51 30 -12 30 -12 -30 -21 -33 -4 -107 -20 -165 -34 l-105 -26 -328 17
c-180 9 -336 15 -347 12 -48 -13 0 38 70 73 25 13 56 26 70 31 35 10 189 10
447 -1z m428 -78 c-6 -5 -64 -23 -130 -41 -66 -18 -140 -39 -164 -48 -35 -13
-68 -14 -180 -9 -219 11 -525 37 -541 47 -23 13 64 11 335 -7 291 -19 370 -15
545 29 74 19 137 35 140 36 2 1 0 -3 -5 -7z m-39 -119 c-3 -42 -6 -179 -6
-305 l0 -228 -125 0 -125 0 0 253 c0 138 3 262 6 274 5 18 25 29 98 52 50 17
106 30 125 31 l34 0 -7 -77z m-512 -4 c103 -6 199 -9 212 -6 l24 4 0 -263 0
-264 -92 0 c-51 0 -117 3 -145 6 l-53 7 -2 96 -2 96 -3 -99 -4 -99 -117 7
c-64 4 -138 10 -164 13 l-48 6 0 260 0 260 103 -6 c56 -4 187 -12 291 -18z
m-1251 -308 c-1 -1 -7 0 -13 4 -8 5 -11 47 -9 132 3 187 13 199 19 23 3 -85 4
-157 3 -159z m114 216 c8 -16 13 -42 11 -59 l-3 -31 -43 37 c-24 20 -48 36
-53 36 -5 0 -9 21 -9 46 l0 45 41 -23 c23 -12 48 -35 56 -51z m-4 -139 c-5
-10 -55 -10 -77 -2 -11 4 -16 19 -16 51 l0 45 49 -44 c27 -24 47 -46 44 -50z
m-163 -44 c0 -8 -5 -12 -10 -9 -6 4 -8 11 -5 16 9 14 15 11 15 -7z m178 9
c-21 -2 -55 -2 -75 0 -21 2 -4 4 37 4 41 0 58 -2 38 -4z m350 -59 c314 -48
352 -55 352 -65 0 -11 24 -14 -201 22 -248 39 -400 68 -419 80 -11 8 -7 9 13
4 16 -3 131 -21 255 -41z m-447 -23 c128 -44 344 -100 395 -102 11 0 14 -3 7
-5 -30 -13 -285 48 -473 111 -57 19 -105 33 -107 31 -3 -2 42 -22 99 -44 306
-118 621 -169 1248 -203 361 -20 1188 -3 1549 31 57 6 106 9 107 7 1 -1 -10
-29 -26 -62 l-29 -60 -78 -3 c-43 -1 -125 -7 -183 -12 -383 -36 -912 -53
-1259 -40 -522 20 -808 58 -1278 170 l-133 32 -14 51 c-33 120 -30 146 15 147
9 0 81 -22 160 -49z m125 41 c13 -8 25 -62 14 -62 -7 0 -59 18 -113 39 -16 6
-25 15 -22 21 7 11 104 13 121 2z m120 -17 c59 -14 525 -95 546 -95 4 0 8 -18
8 -40 0 -38 -1 -39 -27 -35 -16 2 -88 12 -161 20 -137 17 -405 77 -429 97 -12
9 -19 68 -9 68 3 0 35 -7 72 -15z m2734 -41 c0 -16 -5 -17 -37 -8 -13 4 -23
10 -23 14 0 9 40 18 53 12 4 -2 7 -10 7 -18z m-98 -36 c-16 -24 -32 -53 -36
-65 -4 -13 -12 -23 -18 -23 -7 0 -6 5 1 14 7 8 9 25 6 39 -5 20 0 30 27 51 47
37 53 32 20 -16z m-106 -59 c-1 -30 21 -36 27 -7 4 20 4 20 6 -4 1 -25 -3 -28
-29 -28 -32 0 -36 9 -20 41 14 24 17 24 16 -2z m-806 -30 c188 -14 434 -17
625 -7 91 4 117 4 85 -3 -25 -5 -240 -12 -477 -16 l-433 -6 0 27 c0 21 4 26
18 22 9 -2 91 -10 182 -17z m-1926 -84 c286 -70 567 -114 941 -147 82 -7 305
-12 540 -12 408 0 719 15 1071 52 l161 17 -19 -44 c-26 -61 -117 -214 -171
-287 -31 -43 -59 -68 -92 -84 -43 -21 -56 -22 -144 -16 -116 8 -406 43 -371
45 44 2 435 70 461 80 38 16 9 13 -261 -23 -378 -51 -489 -60 -770 -61 -271 0
-411 11 -648 51 -180 31 -462 102 -572 145 -47 18 -87 34 -90 34 -26 3 -100
29 -100 35 0 4 -8 7 -17 6 -21 -1 -43 40 -78 149 -14 44 -29 86 -31 93 -3 6
-4 12 -1 12 3 0 89 -20 191 -45z"/>
<path d="M1913 1140 l-43 -19 0 -137 0 -136 29 5 c17 4 45 13 64 20 30 13 35
20 40 62 10 70 8 170 -3 199 -11 31 -30 32 -87 6z m65 -128 l3 -112 -26 -10
c-63 -24 -65 -21 -65 99 0 103 2 111 23 126 12 8 31 14 42 13 18 -3 20 -12 23
-116z"/>
<path d="M1240 1120 c-12 -7 -15 -33 -15 -127 l0 -118 55 -6 c30 -4 83 -10
118 -13 l62 -7 0 130 c0 151 13 136 -125 145 -44 3 -87 1 -95 -4z m154 -16
l46 -7 0 -112 0 -113 -37 4 c-21 3 -65 8 -97 12 l-59 7 0 96 c0 52 3 101 7
107 8 13 68 15 140 6z"/>
<path d="M1494 1109 c-3 -6 -3 -66 1 -134 l7 -124 41 -6 c23 -4 74 -5 112 -3
l70 3 0 125 0 125 -50 6 c-120 16 -174 18 -181 8z m194 -30 c20 -8 22 -15 22
-83 0 -40 -3 -88 -6 -105 l-6 -31 -89 0 -89 0 0 119 0 118 73 -5 c39 -2 82 -9
95 -13z"/>
</g>
</svg>
