<?xml version="1.0" standalone="no"?>
<!DOCTYPE svg PUBLIC "-//W3C//DTD SVG 20010904//EN"
 "http://www.w3.org/TR/2001/REC-SVG-20010904/DTD/svg10.dtd">
<svg version="1.0" xmlns="http://www.w3.org/2000/svg"
 width="336.000000pt" height="258.000000pt" viewBox="0 0 336.000000 258.000000"
 preserveAspectRatio="xMidYMid meet">

<g transform="translate(0.000000,258.000000) scale(0.100000,-0.100000)"
fill="#000000" stroke="none">
<path d="M575 2559 c-127 -11 -275 -36 -343 -60 -137 -47 -160 -86 -173 -292
-5 -78 -12 -293 -16 -477 -4 -274 -8 -339 -21 -358 -11 -17 -13 -39 -9 -85 5
-52 10 -65 34 -85 47 -38 220 -142 237 -142 10 0 16 -9 16 -24 0 -47 40 -154
70 -186 l30 -32 85 4 c64 3 89 9 105 23 18 16 24 17 42 6 11 -7 80 -47 151
-88 144 -83 236 -142 256 -167 7 -9 20 -16 27 -16 8 0 16 -10 19 -23 2 -12 11
-52 19 -88 38 -169 86 -229 186 -229 49 0 132 20 169 39 20 11 31 8 94 -30
141 -83 177 -100 224 -109 26 -5 66 -13 88 -19 50 -13 120 -5 469 54 289 49
771 139 828 155 57 16 78 50 78 126 0 35 -4 64 -9 64 -5 0 -11 145 -14 323 -4
257 -8 330 -20 362 -9 23 -22 121 -32 235 -15 185 -29 315 -41 388 -6 38 1 39
61 11 50 -23 57 -45 25 -74 -18 -16 -20 -31 -20 -120 0 -118 4 -126 78 -132
79 -8 87 5 87 135 0 91 -3 113 -17 129 -10 11 -18 28 -18 39 0 54 -78 117
-163 131 -32 5 -35 9 -40 46 -3 22 -14 52 -25 66 -66 89 -204 128 -1327 367
-480 102 -614 127 -720 134 -154 11 -332 10 -470 -1z m620 -44 c50 -8 212 -42
360 -75 149 -33 410 -89 580 -125 254 -54 635 -142 642 -149 1 0 -101 -2 -225
-2 -341 -2 -570 -35 -716 -104 -34 -16 -73 -41 -86 -55 -13 -14 -30 -25 -38
-25 -8 0 -172 45 -366 101 -394 113 -1160 319 -1188 319 -25 0 -22 15 7 38 42
33 213 73 395 92 131 13 529 4 635 -15z m-830 -186 c373 -98 691 -186 1000
-274 379 -109 348 -104 392 -64 109 95 329 134 818 146 167 4 270 2 310 -6
121 -23 195 -84 195 -162 0 -46 3 -45 -210 -59 -85 -6 -225 -17 -310 -25 -85
-8 -249 -21 -365 -29 -424 -31 -401 -32 -393 23 4 24 2 28 -9 20 -7 -7 -13
-17 -13 -23 -1 -36 -16 -37 -111 -7 -52 16 -164 51 -249 76 -85 26 -236 72
-335 102 -99 30 -268 78 -375 108 -107 30 -276 77 -374 104 -196 56 -198 56
-216 -8 -11 -40 -13 -404 -2 -466 6 -32 15 -44 47 -63 42 -25 41 -25 -43 2
l-52 18 0 111 c1 124 33 507 44 525 4 7 10 12 14 12 4 0 111 -27 237 -61z
m-208 -251 c-2 -35 -3 -9 -3 57 0 66 1 94 3 63 2 -32 2 -86 0 -120z m104 132
l69 -21 0 -114 c0 -63 -1 -115 -2 -115 -2 0 -37 11 -78 23 l-75 24 -3 111 c-2
81 1 112 9 112 7 0 43 -9 80 -20z m96 -12 c-3 -8 -6 -5 -6 6 -1 11 2 17 5 13
3 -3 4 -12 1 -19z m46 -299 c-4 -140 -10 -229 -11 -199 -5 68 9 463 15 457 2
-3 1 -119 -4 -258z m136 225 c48 -14 90 -29 94 -33 4 -4 6 -60 5 -123 l-3
-116 -100 33 -100 34 -3 115 c-2 87 0 116 10 116 6 0 50 -12 97 -26z m153
-305 c-3 -281 -2 -302 15 -315 17 -14 16 -14 -4 -4 l-23 11 0 304 c0 168 3
305 8 305 4 0 6 -135 4 -301z m40 -9 c3 -146 2 -236 -2 -200 -8 65 -13 477 -6
469 2 -2 6 -123 8 -269z m191 209 l37 -10 0 -133 0 -133 -92 34 c-51 19 -99
36 -105 38 -10 3 -13 38 -13 129 l0 125 68 -20 c37 -11 84 -24 105 -30z m43
15 c18 -14 18 -14 -6 -3 -31 14 -36 19 -24 19 6 0 19 -7 30 -16z m97 -14 c6 0
1 -7 -11 -16 -22 -15 -22 -16 -22 -325 0 -204 -3 -308 -10 -304 -11 7 -14 344
-3 534 5 100 9 121 20 116 8 -3 20 -5 26 -5z m57 -20 c18 -12 2 -12 -25 0 -13
6 -15 9 -5 9 8 0 22 -4 30 -9z m-959 -122 c-3 -127 -11 -125 -11 2 0 57 3 100
6 97 4 -4 6 -48 5 -99z m1034 52 c39 -12 76 -29 83 -38 12 -16 19 -282 7 -282
-4 0 -46 14 -95 31 l-89 31 -3 141 c-2 101 -6 142 -15 145 -10 3 -14 -30 -15
-140 l-2 -143 -3 140 c-4 166 -3 171 34 152 16 -8 60 -24 98 -37z m-925 7 l65
-22 3 -98 c3 -112 13 -106 -95 -62 l-58 23 -3 91 c-3 104 -8 100 88 68z m1021
3 c17 -10 19 -21 17 -128 l-2 -117 -3 110 c-3 97 -6 112 -24 128 -24 19 -18
22 12 7z m-304 -282 c-1 -51 -3 -10 -3 92 0 102 2 143 3 93 2 -51 2 -135 0
-185z m368 -331 c0 -336 -2 -488 -5 -352 l-6 240 -2 -197 c-2 -227 -7 -237
-67 -138 -45 75 -90 110 -138 110 -38 0 -72 -31 -83 -77 -8 -29 -15 -29 -48 2
-30 27 -41 32 -31 13 4 -7 0 -6 -7 3 -20 24 -297 161 -310 153 -6 -4 -8 -3 -5
3 3 5 -23 25 -58 44 -60 31 -66 38 -81 84 -25 76 -50 120 -84 149 -56 46 -117
28 -148 -45 l-17 -38 -98 56 -97 55 0 154 c0 85 3 154 8 154 13 0 309 -115
542 -210 528 -215 669 -270 694 -270 l26 0 0 357 c0 196 3 353 7 349 4 -4 7
-273 8 -599z m190 545 c77 -22 156 -44 175 -49 29 -7 36 -14 38 -38 l4 -29
-19 22 c-13 17 -62 37 -181 73 -90 27 -169 49 -177 49 -8 0 -15 5 -15 11 0 6
8 8 18 5 9 -3 80 -23 157 -44z m1677 17 c41 -21 58 -45 58 -83 0 -39 -28 -33
-32 7 -3 29 -10 35 -65 62 -35 16 -63 33 -63 38 0 12 58 -2 102 -24z m-138
-16 c15 -69 27 -186 43 -417 20 -296 21 -292 -71 -316 -56 -14 -59 -14 -99 9
-23 13 -93 51 -155 83 -62 33 -111 62 -109 64 2 3 24 0 48 -5 24 -6 68 -11 97
-11 36 0 82 -11 143 -35 50 -19 96 -35 103 -35 8 0 10 72 8 272 -2 322 -5 348
-38 388 l-26 30 25 0 c20 0 27 -6 31 -27z m-2652 -65 c-4 -125 -9 -137 -10
-30 -1 56 1 102 6 102 4 0 6 -33 4 -72z m1157 10 l73 -23 -1 -723 c-1 -398 -5
-730 -8 -738 -8 -21 -15 -19 -108 33 l-85 48 0 352 0 353 85 -42 c56 -28 88
-39 95 -32 6 6 10 141 10 354 l1 345 -113 42 c-62 23 -116 42 -120 42 -10 1
-10 -294 -1 -942 l6 -497 96 -53 c53 -28 106 -56 119 -60 13 -5 22 -17 22 -29
0 -18 -3 -18 -52 10 -29 16 -92 51 -140 77 l-88 47 0 748 0 749 68 -19 c37
-10 100 -29 141 -42z m-1229 -63 c0 -63 -3 -115 -7 -115 -5 0 -7 52 -5 115 2
63 5 115 8 115 2 0 4 -52 4 -115z m198 81 l82 -28 0 -99 c0 -54 -4 -99 -8 -99
-5 0 -46 15 -93 33 l-84 33 -3 98 c-2 77 0 97 10 94 7 -3 50 -17 96 -32z
m2473 5 c33 -33 32 -29 33 -423 l1 -176 -35 15 c-19 8 -54 22 -77 30 l-43 15
0 284 0 284 46 0 c37 0 51 -5 75 -29z m-169 -253 c-2 -150 -5 -274 -6 -275 -1
-2 -47 5 -102 15 l-99 17 -5 107 c-4 60 -10 112 -15 117 -6 5 -26 13 -45 18
l-35 9 -3 122 -3 121 33 5 c41 7 110 12 208 14 l75 2 -3 -272z m-348 135 c-3
-65 -7 -119 -8 -120 -2 -2 -49 13 -107 32 -57 18 -137 43 -176 55 l-73 21 0
53 0 53 143 10 c78 5 161 10 185 11 l43 2 -7 -117z m-714 82 c0 -2 -5 -16 -11
-32 -11 -26 -14 -44 -17 -102 -1 -13 -5 -22 -8 -18 -3 3 -3 42 1 86 5 62 10
78 21 74 8 -3 14 -7 14 -8z m310 -29 c0 -19 -3 -37 -7 -39 -11 -7 -143 54
-143 64 0 5 34 9 75 9 l75 0 0 -34z m-246 5 c-42 -26 -48 -36 -55 -101 l-6
-55 -2 68 c-1 76 18 107 67 107 l27 0 -31 -19z m-426 -304 c-1 -278 -2 -289
-8 -137 -11 267 -11 452 0 445 6 -4 9 -116 8 -308z m301 210 c0 -38 -3 -46 -9
-32 -4 11 -6 30 -3 42 3 15 -1 23 -16 28 -16 5 -21 15 -21 38 l1 32 24 -28
c20 -23 25 -38 24 -80z m1601 47 c0 -1 -12 -1 -26 -1 -16 0 -21 2 -14 7 9 5 9
9 1 14 -6 4 -11 11 -11 17 0 5 11 -1 25 -13 14 -12 25 -22 25 -24z m-2680 -89
c0 -69 -3 -125 -7 -125 -5 0 -7 56 -5 125 2 69 5 125 8 125 2 0 4 -56 4 -125z
m948 69 l25 -16 -5 -299 c-3 -165 -8 -303 -12 -307 -4 -4 -38 9 -74 29 l-67
35 -8 293 c-5 160 -6 298 -3 306 4 12 14 11 63 -6 31 -10 68 -26 81 -35z m407
17 c50 -22 181 -70 293 -108 l203 -68 -3 -100 -3 -100 -27 -3 c-44 -5 -33 -26
25 -46 l52 -19 -132 -126 -131 -126 -187 -22 c-200 -24 -222 -22 -250 21 -32
49 -35 96 -24 396 11 275 13 296 32 318 28 30 48 28 152 -17z m-1055 -154 c0
-84 -3 -108 -12 -104 -79 34 -183 77 -185 77 -2 0 -3 47 -3 104 l0 103 100
-35 100 -36 0 -109z m-740 163 c8 -5 11 -10 5 -10 -5 0 -17 5 -25 10 -8 5 -10
10 -5 10 6 0 17 -5 25 -10z m3033 3 c-7 -2 -19 -2 -25 0 -7 3 -2 5 12 5 14 0
19 -2 13 -5z m-2953 -38 c14 -8 21 -14 15 -14 -5 0 -21 6 -35 14 -14 8 -20 14
-15 14 6 0 21 -6 35 -14z m1409 -97 c1 -20 -4 -28 -15 -28 -14 0 -15 7 -10 38
3 20 6 53 7 72 1 33 2 33 10 -10 4 -25 8 -57 8 -72z m1610 86 c2 -1 0 -35 -4
-73 -6 -66 -9 -71 -30 -71 -50 0 -55 8 -55 85 l0 73 43 -5 c23 -3 44 -7 46 -9z
m-3079 -4 c8 -5 11 -10 5 -10 -5 0 -17 5 -25 10 -8 5 -10 10 -5 10 6 0 17 -5
25 -10z m65 -30 c3 -6 -1 -7 -9 -4 -18 7 -21 14 -7 14 6 0 13 -4 16 -10z m170
-25 c39 -17 21 -18 -25 0 -19 7 -28 14 -20 14 8 0 29 -6 45 -14z m596 -196
c-8 -19 -10 -6 -10 57 -1 123 13 173 17 58 1 -50 -2 -101 -7 -115z m124 157
l90 -34 3 -111 c1 -61 -1 -111 -5 -111 -4 0 -47 16 -95 36 l-88 37 0 108 c0
60 1 109 3 109 1 0 43 -15 92 -34z m-655 14 c8 -5 11 -10 5 -10 -5 0 -17 5
-25 10 -8 5 -10 10 -5 10 6 0 17 -5 25 -10z m1226 -19 c12 10 13 9 8 -5 -8
-21 -34 -21 -33 2 0 11 2 12 6 4 4 -10 8 -10 19 -1z m-1161 -11 c3 -6 -1 -7
-9 -4 -18 7 -21 14 -7 14 6 0 13 -4 16 -10z m1210 -10 c3 -5 -1 -10 -10 -10
-9 0 -13 5 -10 10 3 6 8 10 10 10 2 0 7 -4 10 -10z m-28 -45 c2 0 0 -32 -4
-69 l-6 -67 -36 3 -36 3 -3 73 -3 72 43 -6 c24 -4 44 -8 45 -9z m-936 -40 c46
-19 79 -34 73 -35 -11 0 -186 69 -194 77 -8 9 31 -5 121 -42z m1696 -77 c-2
-24 -4 -5 -4 42 0 47 2 66 4 43 2 -24 2 -62 0 -85z m67 91 c9 -48 7 -154 -3
-143 -11 12 -23 174 -12 174 5 0 11 -14 15 -31z m-1627 -46 c-3 -10 -5 -4 -5
12 0 17 2 24 5 18 2 -7 2 -21 0 -30z m1590 -90 c-2 -21 -4 -4 -4 37 0 41 2 58
4 38 2 -21 2 -55 0 -75z m-1737 87 c8 -5 11 -10 5 -10 -5 0 -17 5 -25 10 -8 5
-10 10 -5 10 6 0 17 -5 25 -10z m140 -48 c0 -9 -7 -11 -22 -6 -44 13 -49 21
-14 20 23 -1 36 -6 36 -14z m327 -54 c-2 -13 -4 -3 -4 22 0 25 2 35 4 23 2
-13 2 -33 0 -45z m-1237 -57 c0 -28 -4 -41 -9 -35 -9 9 -15 52 -12 89 3 39 21
-7 21 -54z m357 47 c28 -31 47 -71 68 -143 19 -64 35 -245 23 -245 -5 0 -8 22
-8 49 0 107 -40 255 -87 319 -40 54 -92 39 -118 -33 -12 -35 -14 -36 -15 -13
0 14 12 40 26 57 32 39 80 42 111 9z m743 12 c8 -5 11 -10 5 -10 -5 0 -17 5
-25 10 -8 5 -10 10 -5 10 6 0 17 -5 25 -10z m548 -574 c2 -461 0 -577 -10
-574 -10 4 -14 129 -16 582 -2 461 0 577 10 574 10 -4 14 -129 16 -582z m-598
564 c8 -5 11 -10 5 -10 -5 0 -17 5 -25 10 -8 5 -10 10 -5 10 6 0 17 -5 25 -10z
m660 -510 c3 -283 2 -520 -2 -525 -4 -6 -8 -35 -10 -65 -2 -31 -8 -55 -15 -58
-10 -3 -13 118 -13 583 0 553 1 586 18 583 16 -3 17 -38 22 -518z m-1662 492
c15 -11 60 -36 100 -57 43 -22 72 -44 72 -53 0 -13 -3 -12 -15 4 -14 17 -15
13 -9 -50 l7 -69 -39 23 c-22 13 -63 40 -93 59 l-54 36 -4 63 c-1 34 0 62 3
62 3 0 18 -8 32 -18z m1052 -2 c8 -5 11 -10 5 -10 -5 0 -17 5 -25 10 -8 5 -10
10 -5 10 6 0 17 -5 25 -10z m70 0 c8 -5 11 -10 5 -10 -5 0 -17 5 -25 10 -8 5
-10 10 -5 10 6 0 17 -5 25 -10z m1415 -10 c8 -13 -5 -13 -25 0 -13 8 -13 10 2
10 9 0 20 -4 23 -10z m-1425 -15 c14 -8 21 -14 15 -14 -5 0 -21 6 -35 14 -14
8 -20 14 -15 14 6 0 21 -6 35 -14z m76 -32 c-3 -4 -16 -1 -28 5 l-23 11 23 0
c12 1 23 7 23 14 1 6 3 4 6 -6 3 -10 2 -21 -1 -24z m1354 15 c10 -6 7 -7 -10
-2 -14 3 -32 11 -40 16 -10 6 -7 7 10 2 14 -3 32 -11 40 -16z m138 -97 c37
-22 76 -46 87 -54 19 -15 18 -15 -15 -21 -19 -3 -78 -10 -130 -16 -52 -6 -104
-13 -116 -15 -20 -4 -22 1 -26 68 -3 39 -3 86 -1 104 l5 31 64 -29 c35 -15 95
-46 132 -68z m-218 80 c0 -5 -7 -12 -16 -15 -14 -5 -15 -4 -4 9 14 17 20 19
20 6z m262 -72 c106 -60 145 -89 93 -69 -15 6 -45 23 -68 39 -23 16 -71 45
-107 66 -36 20 -56 34 -45 30 11 -3 68 -33 127 -66z m-319 30 c-6 -6 -9 -18
-6 -27 4 -10 2 -13 -8 -10 -8 3 -23 -2 -34 -11 -11 -8 -4 1 14 22 19 20 37 37
40 37 3 0 0 -5 -6 -11z m56 -144 c-6 -5 -190 -28 -194 -23 -2 2 38 39 88 84
l92 80 9 -68 c5 -38 7 -70 5 -73z m-2140 89 c12 -15 21 -23 22 -18 0 5 4 0 9
-11 14 -33 11 -143 -5 -174 -18 -35 -40 -45 -56 -25 -10 12 -9 13 3 9 15 -6
38 14 42 37 1 7 5 18 9 24 4 7 -1 14 -12 17 -12 3 -22 -1 -25 -10 -5 -12 -9
-13 -20 -4 -10 8 -16 9 -19 1 -3 -6 -4 -5 -3 2 2 7 10 12 18 10 9 -1 18 7 21
20 8 27 3 32 -20 24 -15 -6 -15 -8 -3 -16 8 -6 11 -10 5 -10 -13 1 -55 36 -55
46 0 4 5 3 12 -4 20 -20 30 -13 26 21 -2 26 1 32 16 32 11 0 21 5 23 12 7 20
-17 25 -42 9 -29 -19 -33 -11 -8 16 22 25 38 23 62 -8z m2726 -61 c-30 -21
-204 -37 -205 -18 0 6 8 10 18 11 9 1 28 6 42 11 14 6 42 13 62 17 21 4 50 19
65 35 l28 28 3 -35 c2 -25 -2 -40 -13 -49z m-1728 45 c-3 -8 -6 -5 -6 6 -1 11
2 17 5 13 3 -3 4 -12 1 -19z m-1068 -31 c8 -10 7 -14 -4 -14 -8 0 -15 6 -15
14 0 7 2 13 4 13 2 0 9 -6 15 -13z m1482 -119 c12 -10 33 -21 48 -25 24 -6
169 8 431 43 414 54 585 73 594 64 5 -5 8 -11 5 -13 -2 -2 -94 -15 -204 -30
-110 -15 -299 -41 -420 -58 -304 -42 -383 -46 -439 -25 -24 9 -49 22 -54 29
-6 7 -13 41 -17 77 l-6 65 20 -55 c11 -30 29 -63 42 -72z m-933 -88 c67 -34
122 -66 122 -70 0 -5 3 -17 7 -27 3 -10 2 -15 -3 -10 -5 5 -13 -22 -19 -67
l-10 -75 -80 50 c-44 27 -151 90 -237 140 l-158 90 0 62 c0 34 -3 73 -7 86 -6
22 5 18 128 -46 74 -39 189 -99 257 -133z m1472 174 c-8 -8 -23 -20 -34 -25
-13 -7 -9 -1 9 15 34 29 43 33 25 10z m794 -31 c3 -10 5 -131 5 -270 0 -189
-4 -254 -13 -262 -7 -6 -46 -18 -87 -26 -41 -9 -82 -18 -91 -21 -17 -5 -18 9
-18 203 0 149 -3 212 -12 221 -18 18 -71 15 -323 -18 -308 -41 -292 -38 -326
-68 -35 -32 -36 -37 -30 -295 2 -87 2 -160 -1 -162 -2 -2 -60 -14 -129 -25
-159 -26 -260 -26 -316 0 l-43 19 0 316 0 316 26 -20 c15 -12 49 -28 76 -36
45 -13 68 -12 266 10 280 32 827 103 917 120 96 17 93 17 99 -2z m-2819 -3 c3
-5 1 -10 -4 -10 -6 0 -11 5 -11 10 0 6 2 10 4 10 3 0 8 -4 11 -10z m7 -75 c9
-20 9 -20 -6 -1 -9 11 -16 27 -15 35 0 14 1 14 6 1 3 -8 10 -24 15 -35z m50
-7 c-9 -9 -15 -9 -24 1 -9 10 -9 12 -1 7 6 -3 15 -1 18 5 4 5 10 8 13 4 3 -3
0 -11 -6 -17z m779 -40 c36 -36 76 -115 85 -169 3 -20 -5 -6 -19 33 -57 154
-124 195 -182 111 -14 -21 -25 -32 -25 -26 0 23 62 83 85 83 13 0 38 -15 56
-32z m1748 -37 c10 -7 14 -47 15 -180 0 -95 -2 -179 -6 -189 -4 -9 -7 63 -7
160 l-1 178 -27 7 c-30 7 -474 -52 -533 -71 -55 -18 -60 -38 -60 -248 0 -170
-7 -217 -24 -172 -3 9 -6 101 -6 206 l0 190 28 28 c20 19 43 30 73 34 24 4
139 19 254 35 231 32 273 35 294 22z m-66 -48 c-7 -2 -21 -2 -30 0 -10 3 -4 5
12 5 17 0 24 -2 18 -5z m-70 -10 c-7 -2 -21 -2 -30 0 -10 3 -4 5 12 5 17 0 24
-2 18 -5z m-60 -10 c-7 -2 -21 -2 -30 0 -10 3 -4 5 12 5 17 0 24 -2 18 -5z
m162 -2 c-6 -4 -62 -16 -125 -26 -146 -21 -356 -54 -395 -60 -29 -5 -29 -5 -5
6 14 5 117 24 230 40 175 26 282 43 300 48 2 0 0 -3 -5 -8z m-227 -8 c-10 -2
-26 -2 -35 0 -10 3 -2 5 17 5 19 0 27 -2 18 -5z m-65 -10 c-7 -2 -21 -2 -30 0
-10 3 -4 5 12 5 17 0 24 -2 18 -5z m-1292 -107 c2 -143 -2 -270 -9 -278 -4 -4
-7 50 -7 120 0 70 -3 157 -7 194 -6 57 -5 66 7 61 12 -4 15 -27 16 -97z m1227
97 c-10 -2 -26 -2 -35 0 -10 3 -2 5 17 5 19 0 27 -2 18 -5z m-80 -10 c-10 -2
-26 -2 -35 0 -10 3 -2 5 17 5 19 0 27 -2 18 -5z m437 -2 c-10 -9 -546 -94
-552 -87 -5 5 138 31 347 61 96 15 177 28 179 31 2 2 11 4 20 4 9 0 11 -3 6
-9z m-1679 -37 c17 -14 17 -15 1 -10 -10 3 -25 6 -33 6 -8 0 -14 5 -14 10 0
15 24 12 46 -6z m1679 -4 c-25 -11 -492 -83 -506 -78 -10 3 474 85 511 86 9 0
7 -3 -5 -8z m-1657 -48 c17 -22 16 -26 -13 -60 -29 -35 -31 -54 -9 -73 13 -10
17 -10 25 2 12 19 11 29 -1 29 -5 0 -10 -7 -10 -16 0 -8 -4 -12 -10 -9 -17 11
-11 39 15 64 l25 23 0 -100 c0 -118 -9 -149 -46 -158 -22 -6 -32 -2 -51 20
-22 26 -31 56 -15 56 4 0 12 -10 17 -22 13 -29 45 -35 62 -12 16 22 17 42 1
26 -22 -22 -48 -14 -49 16 0 15 -3 21 -6 15 -6 -17 -28 -17 -41 0 -6 6 -13 30
-16 52 -4 27 -3 33 2 20 9 -19 9 -19 16 3 10 31 20 28 39 -13 11 -23 24 -35
37 -35 28 0 25 14 -5 28 -14 7 -25 20 -25 31 0 29 -24 45 -49 31 -19 -10 -21
-8 -21 20 0 33 15 70 34 83 17 11 79 -2 94 -21z m1656 8 c-12 -5 -75 -16 -140
-25 -66 -9 -186 -27 -268 -41 -82 -14 -150 -23 -153 -21 -6 7 29 14 247 47
113 17 225 35 250 39 25 5 54 9 65 9 19 1 19 0 -1 -8z m-14 -41 c-19 -4 -136
-24 -260 -44 -124 -19 -238 -38 -255 -40 -23 -4 -25 -3 -10 4 11 4 110 23 220
41 110 17 220 35 245 40 63 11 106 11 60 -1z m-513 -5 c-3 -3 -12 -4 -19 -1
-8 3 -5 6 6 6 11 1 17 -2 13 -5z m538 -23 c-10 -8 -168 -36 -400 -71 -66 -10
-133 -21 -150 -25 -21 -4 -26 -3 -15 3 8 6 78 20 155 31 109 17 388 63 415 70
2 1 0 -3 -5 -8z m-50 -46 c-272 -51 -348 -64 -410 -69 -51 -4 -37 0 50 14 66
11 176 30 245 44 69 13 139 24 155 24 17 0 -1 -6 -40 -13z m15 -34 c-8 -5 -89
-20 -180 -35 -91 -14 -179 -29 -196 -31 -18 -3 -38 -13 -45 -22 -13 -15 -11
-16 11 -10 14 3 52 8 85 11 59 5 58 5 -15 -9 -107 -20 -126 -19 -126 5 0 22
-2 22 186 50 74 12 162 27 195 34 73 17 107 19 85 7z m45 -31 c4 -6 -6 -10
-22 -10 -22 0 -25 2 -13 10 19 12 27 12 35 0z m-1578 -92 c-2 -18 -4 -6 -4 27
0 33 2 48 4 33 2 -15 2 -42 0 -60z m1476 75 c-7 -2 -21 -2 -30 0 -10 3 -4 5
12 5 17 0 24 -2 18 -5z m-60 -10 c-7 -2 -19 -2 -25 0 -7 3 -2 5 12 5 14 0 19
-2 13 -5z m-50 -10 c-7 -2 -21 -2 -30 0 -10 3 -4 5 12 5 17 0 24 -2 18 -5z
m217 -5 c0 -9 -62 -24 -188 -46 -356 -63 -402 -69 -402 -55 0 19 -1 19 256 67
241 46 334 55 334 34z m270 -27 c0 -53 -8 -69 -39 -85 -45 -24 -552 -119 -951
-180 -129 -20 -250 -39 -268 -42 -39 -6 -134 19 -152 41 -15 18 -17 56 -6 98
5 23 9 26 26 17 41 -22 162 -22 295 -1 389 61 702 115 875 150 107 21 201 39
208 40 8 1 12 -13 12 -38z m-547 22 c-7 -2 -19 -2 -25 0 -7 3 -2 5 12 5 14 0
19 -2 13 -5z m-256 -39 c-3 -3 -12 -4 -19 -1 -8 3 -5 6 6 6 11 1 17 -2 13 -5z"/>
<path d="M875 2475 c-83 -18 -117 -33 -113 -48 3 -6 54 -25 114 -40 l109 -28
65 20 c88 27 179 41 273 41 121 0 95 21 -59 47 -147 25 -299 28 -389 8z m375
-23 c23 -10 22 -11 -15 -11 -22 -1 -76 -11 -120 -23 -99 -26 -163 -27 -240 -4
-56 17 -58 19 -35 28 14 5 43 14 65 18 52 12 313 5 345 -8z"/>
<path d="M1850 2263 c-124 -8 -270 -26 -270 -33 0 -12 193 -60 218 -54 12 4
22 12 22 20 0 18 -21 29 -29 15 -8 -12 -87 -5 -96 9 -8 13 315 22 374 11 68
-14 78 -14 65 -1 -6 6 -41 17 -80 25 -66 14 -102 15 -204 8z"/>
<path d="M2470 2104 c-247 -16 -423 -40 -477 -64 -42 -19 -83 -68 -83 -102 0
-9 15 -28 32 -43 l33 -28 130 7 c414 22 758 55 793 77 29 18 45 69 33 100 -14
39 -47 62 -76 55 -14 -4 -25 -2 -25 4 0 13 -110 11 -360 -6z m13 -44 c-3 -11
-7 -20 -9 -20 -2 0 -4 9 -4 20 0 11 4 20 9 20 5 0 7 -9 4 -20z m-175 -144
c453 30 560 40 582 54 7 5 17 28 20 52 7 39 8 40 9 10 2 -48 -14 -70 -57 -81
-33 -9 -271 -30 -539 -47 l-103 -7 1 89 2 89 9 -82 10 -82 66 5z m126 109 c4
-24 11 -47 15 -50 11 -6 27 14 34 40 4 18 5 18 6 -3 1 -27 26 -39 46 -22 8 7
15 10 15 6 0 -3 -11 -13 -25 -22 -19 -13 -28 -14 -39 -5 -11 9 -15 9 -18 0 -9
-28 -36 1 -42 45 -7 44 -8 46 -42 46 -37 0 -52 -22 -55 -78 l-2 -27 -4 25 c-3
14 -14 35 -26 48 -20 22 -11 32 10 11 8 -8 14 -5 22 10 9 16 21 21 55 21 l44
0 6 -45z m156 41 c0 -2 -7 -9 -15 -16 -13 -11 -14 -10 -9 4 5 14 24 23 24 12z
m30 -48 c0 -29 -4 -48 -9 -42 -8 8 -3 94 5 94 2 0 4 -23 4 -52z m61 0 c-4 -35
-6 -38 -9 -15 -3 26 3 57 10 57 2 0 1 -19 -1 -42z m55 17 c3 -14 4 -32 0 -40
-6 -17 -32 -20 -41 -5 -3 6 1 7 9 4 18 -7 32 18 21 36 -5 8 -11 7 -23 -2 -14
-12 -14 -10 -3 10 15 29 29 28 37 -3z m-201 9 c15 -6 14 -8 -1 -25 -19 -21
-34 -16 -34 12 0 20 8 23 35 13z m62 -31 c-3 -10 -5 -4 -5 12 0 17 2 24 5 18
2 -7 2 -21 0 -30z m-195 -17 c-4 -7 -8 -5 -10 7 -4 21 -18 22 -25 3 -6 -15 6
-28 33 -39 9 -4 5 -6 -9 -4 -37 3 -49 31 -26 57 18 20 20 20 32 4 7 -9 9 -22
5 -28z m250 -18 c-8 -8 -9 -4 -5 13 4 13 8 18 11 10 2 -7 -1 -18 -6 -23z m-62
0 c0 -13 -23 -5 -28 10 -2 7 2 10 12 6 9 -3 16 -11 16 -16z"/>
<path d="M101 1654 c0 -11 3 -14 6 -6 3 7 2 16 -1 19 -3 4 -6 -2 -5 -13z"/>
<path d="M130 1599 c0 -5 5 -7 10 -4 6 3 10 8 10 11 0 2 -4 4 -10 4 -5 0 -10
-5 -10 -11z"/>
<path d="M405 1102 c-7 -20 -6 -24 4 -17 5 3 12 1 16 -5 3 -5 14 -10 23 -10
14 0 14 2 3 9 -8 5 -12 15 -9 23 4 9 -1 14 -13 14 -10 0 -21 -6 -24 -14z"/>
<path d="M440 1046 c0 -9 7 -16 16 -16 17 0 14 22 -4 28 -7 2 -12 -3 -12 -12z"/>
<path d="M3063 973 c-17 -6 -16 -38 1 -52 28 -23 68 17 45 45 -12 14 -24 16
-46 7z"/>
<path d="M3045 727 c-20 -16 -28 -35 -32 -67 -6 -61 12 -85 65 -85 49 0 79 25
88 70 7 41 -8 70 -46 90 -38 20 -44 19 -75 -8z m38 -7 c-12 -5 -30 -21 -39
-36 -17 -25 -17 -28 0 -58 l17 -31 -22 22 c-16 16 -20 28 -15 47 8 33 40 66
64 65 13 0 12 -2 -5 -9z m61 -45 c4 -14 2 -33 -4 -43 -10 -15 -10 -14 -5 4 3
12 1 33 -5 48 -5 15 -6 25 -1 22 5 -3 12 -17 15 -31z m-36 -13 c3 -31 -11 -45
-21 -19 -4 7 -6 6 -6 -5 -1 -9 5 -19 12 -22 6 -3 3 -5 -7 -3 -30 3 -42 31 -28
62 17 37 46 30 50 -13z"/>
<path d="M2064 586 c-26 -26 -34 -42 -34 -71 0 -69 82 -120 133 -82 27 19 46
85 36 120 -21 75 -79 89 -135 33z m49 4 c-13 -5 -23 -12 -23 -16 0 -3 8 -3 17
0 9 4 20 1 25 -6 14 -23 9 -28 -21 -22 -24 5 -30 2 -36 -15 -10 -31 11 -51 54
-51 27 0 32 -3 21 -10 -37 -24 -90 8 -90 54 0 29 36 76 58 75 12 0 11 -3 -5
-9z m57 -74 c0 -39 -6 -30 -13 19 -4 27 -3 35 3 25 5 -8 10 -28 10 -44z m-39
14 c5 0 9 -9 9 -20 0 -15 -7 -20 -25 -20 -20 0 -25 5 -25 26 0 20 4 25 16 20
9 -3 20 -6 25 -6z"/>
<path d="M1150 681 c-5 -11 -10 -28 -9 -38 0 -16 1 -16 8 2 8 19 8 19 19 0 7
-12 12 -15 12 -6 0 11 3 11 15 1 13 -10 15 -9 15 9 0 12 -4 19 -10 16 -5 -3
-10 3 -10 14 0 26 -26 27 -40 2z"/>
<path d="M1224 684 c3 -9 6 -23 6 -32 1 -15 2 -15 11 1 12 21 5 47 -12 47 -6
0 -8 -7 -5 -16z"/>
<path d="M1154 529 c-3 -6 0 -18 9 -26 13 -13 14 -12 10 11 -6 29 -9 31 -19
15z"/>
<path d="M1213 485 c-9 -25 7 -32 23 -10 8 11 17 18 19 15 2 -3 7 -2 11 3 4 4
-5 7 -20 7 -15 0 -29 -7 -33 -15z"/>
<path d="M216 15 c-3 -8 -1 -15 4 -15 6 0 10 7 10 15 0 8 -2 15 -4 15 -2 0 -6
-7 -10 -15z"/>
<path d="M346 15 c8 -19 14 -19 14 0 0 8 -4 15 -10 15 -5 0 -7 -7 -4 -15z"/>
</g>
</svg>
