<?xml version="1.0" standalone="no"?>
<!DOCTYPE svg PUBLIC "-//W3C//DTD SVG 20010904//EN"
 "http://www.w3.org/TR/2001/REC-SVG-20010904/DTD/svg10.dtd">
<svg version="1.0" xmlns="http://www.w3.org/2000/svg"
 width="461.000000pt" height="263.000000pt" viewBox="0 0 461.000000 263.000000"
 preserveAspectRatio="xMidYMid meet">

<g transform="translate(0.000000,263.000000) scale(0.100000,-0.100000)"
fill="#000000" stroke="none">
<path d="M1660 2600 c-233 -24 -669 -118 -783 -168 -61 -27 -109 -72 -198
-188 l-78 -101 -88 -12 c-119 -18 -300 -64 -350 -90 -32 -16 -48 -33 -70 -78
-27 -56 -28 -64 -28 -203 0 -138 -1 -146 -23 -163 -47 -39 -13 -146 61 -187
23 -13 88 -66 145 -118 l102 -94 0 -51 c1 -145 73 -297 164 -344 52 -28 145
-22 212 13 47 23 62 38 81 76 l23 46 447 -179 c637 -256 856 -339 895 -339 33
0 33 0 46 -65 41 -219 172 -355 343 -355 87 0 156 22 231 73 72 49 108 108
116 187 2 28 7 50 11 50 3 0 35 -7 70 -15 148 -35 188 -36 383 -10 214 30 328
56 417 96 35 16 72 29 82 29 10 0 21 4 24 10 11 17 -23 11 -103 -20 -95 -36
-136 -45 -337 -75 -259 -38 -279 -39 -390 -17 -149 30 -148 29 -196 124 -23
46 -53 112 -66 147 -35 94 -68 144 -129 200 -93 85 -219 132 -317 117 -92 -14
-180 -110 -216 -235 -42 -147 -40 -142 -34 -76 13 159 73 266 182 324 59 31
69 33 135 29 84 -6 130 -27 206 -95 29 -26 48 -38 42 -27 -17 31 -103 101
-153 124 -62 28 -150 26 -214 -4 -135 -63 -227 -240 -210 -403 4 -35 4 -63 2
-63 -9 0 -401 153 -622 242 -121 49 -316 128 -433 175 -210 84 -242 101 -242
128 0 22 64 -1 540 -192 466 -188 664 -263 689 -263 13 0 13 2 2 9 -23 15 -33
173 -29 439 3 138 7 255 10 258 8 7 130 -32 518 -165 359 -124 626 -205 642
-195 6 4 -43 22 -108 41 -66 19 -320 102 -565 184 -245 82 -453 149 -462 149
-9 0 -18 3 -20 8 -9 14 26 164 39 169 18 7 335 -86 480 -140 310 -117 658
-288 684 -337 8 -16 6 -26 -10 -47 -25 -35 -44 -96 -27 -90 6 2 16 23 22 48 7
28 17 45 28 47 22 4 22 -4 -2 -29 -11 -12 -24 -49 -30 -83 -16 -92 -14 -124 8
-136 25 -13 91 -13 91 0 0 6 -13 10 -29 10 -16 0 -37 7 -45 16 -21 20 -21 105
-1 148 16 34 78 76 112 76 29 0 56 -66 52 -123 -2 -25 -1 -43 4 -40 12 7 8 92
-7 128 -8 19 -11 35 -5 35 5 0 9 -7 9 -15 0 -8 5 -15 10 -15 6 0 9 -3 8 -8 -1
-4 2 -24 6 -45 6 -24 4 -48 -4 -67 -12 -29 -56 -73 -82 -83 -7 -2 -10 -7 -7
-11 13 -14 79 24 99 56 23 38 25 75 8 147 -12 51 -5 78 13 51 11 -18 7 -177
-6 -204 -6 -15 -5 -17 4 -11 17 10 149 39 323 70 136 25 334 87 396 125 28 17
32 25 32 62 0 23 3 39 6 35 3 -3 6 -22 6 -42 0 -28 3 -35 15 -31 8 3 16 6 17
6 2 0 1 26 -1 58 -2 46 -1 51 7 28 17 -52 40 -69 85 -61 61 9 83 29 101 91 12
42 14 65 6 94 -9 36 -8 39 12 43 13 3 8 5 -14 6 -32 2 -33 3 -13 13 43 21 51
6 51 -84 0 -53 -3 -76 -8 -63 -7 16 -9 12 -9 -17 -1 -46 -31 -72 -110 -95 -31
-8 -123 -44 -206 -79 -172 -72 -192 -77 -490 -138 -211 -43 -364 -84 -318 -85
12 -1 33 3 48 9 26 10 247 56 410 85 128 23 174 37 407 126 246 94 258 99 258
113 0 6 5 5 12 -2 13 -13 29 -16 26 -4 -1 4 6 60 16 125 18 110 18 121 3 153
-9 18 -36 48 -59 65 -92 68 -464 232 -728 320 -156 52 -236 91 -257 124 l-19
30 23 35 c18 25 23 45 21 75 -3 38 -5 40 -39 43 -25 2 -40 -3 -53 -17 -18 -20
-19 -20 -49 22 -68 93 -223 282 -281 340 -72 73 -159 122 -301 167 -131 42
-316 86 -440 106 -117 18 -534 27 -665 14z m626 -35 c148 -22 311 -59 446
-101 112 -36 208 -80 208 -96 0 -4 -41 -8 -90 -8 -282 0 -696 -79 -854 -163
-76 -41 -90 -61 -77 -119 12 -53 125 -372 145 -408 44 -80 180 -87 574 -28
120 18 75 20 -81 3 -168 -17 -367 -20 -367 -5 0 6 40 10 99 10 70 0 101 4 103
12 4 10 55 13 206 15 111 0 223 6 250 12 75 17 316 51 353 50 19 0 -22 -11
-91 -25 -69 -13 -183 -35 -255 -49 -295 -59 -449 -85 -546 -92 l-101 -8 23
-20 c13 -11 18 -13 11 -4 -11 15 0 17 110 22 92 4 216 23 497 77 205 39 382
68 391 65 10 -3 21 -1 25 5 3 5 41 10 85 10 43 0 82 4 85 10 4 6 12 6 23 0 9
-5 76 -34 147 -66 192 -84 350 -165 502 -257 74 -45 149 -90 167 -100 l31 -19
-30 26 c-40 35 -270 175 -398 242 -56 29 -99 54 -96 54 14 0 297 -118 436
-182 145 -67 221 -117 244 -160 10 -18 9 -19 -11 -8 -19 10 -45 5 -164 -33
-252 -81 -397 -121 -591 -162 -125 -27 -189 -45 -187 -53 1 -7 -5 -12 -14 -12
-8 0 -12 4 -9 10 8 14 -14 12 -122 -9 l-91 -18 -59 39 c-69 45 -355 193 -474
244 -153 65 -363 142 -424 154 -33 6 -91 20 -130 30 -38 10 -82 21 -96 24 -25
5 -26 8 -21 54 3 35 -2 62 -17 98 -11 27 -44 122 -71 212 -59 190 -125 339
-164 370 -93 73 -494 187 -748 213 l-120 13 104 28 c186 50 504 107 683 122
101 8 445 -4 551 -19z m-1198 -166 c128 -14 218 -32 387 -79 262 -73 332 -105
364 -168 22 -44 90 -227 165 -446 46 -135 53 -163 44 -188 -6 -16 -15 -27 -22
-25 -6 2 -60 17 -121 32 -121 30 -131 34 -118 45 4 5 54 -1 110 -13 78 -16
105 -19 114 -10 13 13 -18 114 -94 298 -24 61 -57 143 -72 184 -36 95 -73 137
-160 177 -84 39 -287 99 -404 119 -109 20 -273 20 -309 1 -40 -21 -122 -110
-187 -201 -72 -102 -95 -145 -104 -205 l-8 -48 41 -12 c23 -6 146 -45 273 -86
l233 -75 -27 -40 c-23 -35 -28 -55 -35 -160 -5 -67 -7 -224 -6 -350 2 -126 1
-229 -2 -229 -3 0 -41 14 -85 31 -44 17 -120 46 -169 64 l-89 32 -47 144 c-63
194 -91 249 -152 304 -27 25 -56 45 -64 45 -11 0 -14 19 -14 84 0 46 3 98 6
115 6 27 8 29 18 15 7 -9 35 -22 62 -29 41 -10 54 -10 77 2 17 9 27 21 25 31
-4 20 -66 40 -125 41 -24 1 -43 5 -43 10 0 4 10 23 23 42 19 28 29 34 56 32
29 -1 31 0 14 12 -10 7 -46 23 -81 35 -34 12 -62 25 -62 28 0 3 19 26 43 51
24 25 75 91 114 146 92 130 147 192 202 227 51 32 78 34 229 17z m222 -104
c40 -9 75 -17 76 -18 1 -1 -18 -83 -42 -182 -24 -99 -49 -217 -56 -262 -8 -55
-16 -83 -25 -83 -21 0 -16 30 37 238 28 108 52 216 53 241 l2 45 -65 13 c-36
8 -114 15 -175 16 -94 2 -115 -1 -143 -18 -18 -11 -30 -25 -28 -32 3 -7 0 -13
-6 -13 -7 0 -37 -24 -67 -52 l-54 -53 64 73 c89 102 117 114 249 108 58 -3
139 -12 180 -21z m1669 9 c17 -4 31 -12 31 -18 0 -6 41 -60 90 -121 49 -60
128 -158 174 -217 l86 -107 -46 -27 c-28 -16 -63 -28 -92 -29 -26 -2 -144 -19
-262 -38 -167 -28 -254 -37 -390 -41 -180 -5 -401 -35 -408 -55 -6 -18 -27
-12 -51 13 -25 26 -117 259 -146 368 -15 57 -16 70 -5 84 36 42 220 106 416
144 148 28 144 29 144 -25 0 -45 0 -45 -34 -45 -40 0 -66 -22 -66 -54 0 -33
25 -50 72 -50 39 -1 41 -3 60 -51 11 -27 31 -97 43 -154 13 -57 26 -106 29
-108 12 -12 77 10 116 38 82 59 280 93 386 65 76 -20 98 -20 63 -1 -15 8 -57
20 -93 27 -45 9 -66 17 -66 27 0 12 -3 12 -17 -1 -10 -9 -36 -18 -58 -21 -110
-14 -165 -33 -207 -74 l-27 -26 -6 29 c-16 71 -58 221 -66 236 -6 11 -4 18 6
22 22 8 18 44 -10 104 -14 30 -25 65 -25 77 0 20 6 24 38 28 65 7 288 7 321 1z
m-378 -59 c7 -43 -1 -55 -38 -55 -21 0 -23 5 -23 51 0 49 1 50 27 47 24 -3 29
-9 34 -43z m-1348 24 c40 -5 77 -12 84 -14 8 -3 -2 -55 -34 -177 -25 -95 -52
-202 -59 -237 -8 -36 -16 -66 -18 -68 -3 -3 -296 97 -305 104 -13 10 52 347
74 379 14 22 22 24 101 24 47 0 118 -5 157 -11z m319 -73 c91 -34 180 -80 205
-107 30 -33 45 -131 37 -242 l-7 -89 -77 7 c-87 8 -94 4 -105 -62 -4 -24 -10
-45 -14 -47 -6 -4 -200 51 -210 60 -8 7 42 312 65 402 14 52 23 97 20 99 -17
17 -59 -155 -86 -346 -19 -133 -30 -183 -30 -135 0 52 44 365 60 428 13 51 15
73 6 78 -14 9 -49 -168 -72 -368 -16 -140 -19 -151 -37 -146 -10 3 -21 10 -23
16 -7 18 33 238 65 361 16 61 32 122 35 138 l6 27 50 -25 c27 -13 77 -35 112
-49z m1701 -181 c46 -61 90 -121 97 -135 18 -36 1 -16 -65 75 -32 44 -97 125
-144 180 -114 132 -130 157 -42 65 39 -41 109 -125 154 -185z m-1607 175 c45
-20 84 -42 87 -47 3 -5 -27 7 -66 27 -40 20 -90 43 -112 53 -22 9 -29 14 -15
11 14 -4 61 -23 106 -44z m-722 -17 c-7 -31 -21 -103 -30 -159 -9 -56 -20
-108 -25 -115 -12 -19 -129 18 -129 41 0 31 28 99 61 148 33 48 118 142 130
142 3 0 0 -26 -7 -57z m1697 -20 c15 -39 -1 -48 -94 -51 -81 -4 -83 -3 -95 23
-7 14 -12 30 -12 35 0 5 35 11 78 13 42 1 85 4 95 5 11 1 21 -8 28 -25z
m-2082 -84 c-18 -23 -50 -54 -71 -69 -42 -31 -32 -32 -198 14 l-85 23 40 13
c61 20 255 58 303 59 l44 1 -33 -41z m2093 -79 c16 -52 32 -114 37 -138 8 -39
7 -44 -16 -59 -14 -9 -28 -12 -32 -7 -5 5 -19 54 -31 109 -12 55 -31 122 -40
148 l-19 48 37 -3 36 -3 28 -95z m-1906 23 c-8 -15 -15 -25 -16 -21 0 12 23
58 27 54 3 -2 -2 -17 -11 -33z m1227 -425 l7 -26 -66 21 -65 21 5 36 c3 19 8
73 11 120 5 67 3 81 -6 66 -6 -10 -14 -59 -17 -108 -9 -156 -18 -103 -17 100
l0 198 71 -201 c39 -110 74 -212 77 -227z m-1560 371 c94 -28 174 -53 177 -55
2 -3 -1 -13 -8 -22 -58 -83 -63 -97 -69 -219 l-6 -119 31 -13 c39 -16 113 -95
141 -148 21 -42 93 -254 106 -310 4 -21 3 -33 -4 -33 -16 0 -26 26 -55 135
-52 200 -128 308 -240 340 -46 13 -62 14 -96 4 -70 -21 -93 -61 -102 -186 l-3
-32 -65 56 c-71 61 -85 80 -95 136 -9 47 1 48 101 6 41 -17 78 -29 81 -25 9 8
9 9 -98 60 -96 45 -97 46 -108 92 -30 120 -23 257 15 262 11 2 92 -18 180 -44
157 -46 242 -65 199 -45 -11 6 -99 33 -195 61 -96 29 -179 56 -184 60 -12 11
12 67 33 80 32 19 94 9 264 -41z m311 -18 c-6 -38 -5 -39 27 -46 19 -4 201
-62 404 -130 204 -67 424 -135 490 -151 66 -15 122 -29 124 -31 3 -2 0 -8 -5
-13 -19 -19 -1043 302 -1052 329 -5 14 7 81 14 81 2 0 1 -18 -2 -39z m2734
-19 c4 -24 -22 -72 -37 -72 -5 0 -14 14 -21 30 -11 27 -10 33 6 51 23 25 48
21 52 -9z m-28 -161 c0 -13 -58 -22 -101 -15 -22 4 -38 10 -37 15 2 4 23 19
48 33 l45 24 23 -24 c12 -14 22 -29 22 -33z m-2784 8 c39 -10 61 -29 33 -29
-16 0 -119 31 -119 36 0 7 40 4 86 -7z m2624 -9 c0 -5 -4 -10 -10 -10 -5 0
-10 5 -10 10 0 6 5 10 10 10 6 0 10 -4 10 -10z m-1491 -16 c33 -7 38 -25 25
-93 -6 -29 -9 -31 -53 -30 -25 0 -62 6 -82 12 l-35 12 9 43 c11 57 50 73 136
56z m-437 -88 c240 -72 408 -119 537 -150 79 -20 146 -37 148 -39 2 -2 -3 -36
-11 -74 -34 -160 -45 -577 -20 -766 l7 -47 -44 15 c-24 8 -211 81 -415 162
l-371 148 -6 172 c-6 158 4 433 19 525 7 44 41 91 60 84 8 -3 51 -16 96 -30z
m-1246 -150 c11 -69 3 -76 -21 -19 -19 44 -19 83 -2 83 9 0 17 -22 23 -64z
m485 -207 c51 -36 71 -92 74 -199 2 -52 1 -76 -2 -54 -3 31 -9 43 -24 47 -24
6 -35 -9 -14 -20 14 -8 13 -12 -5 -28 -23 -21 -12 -45 21 -45 28 0 23 -17 -13
-51 -53 -48 -99 -52 -127 -9 -15 23 -15 24 4 15 30 -13 78 -12 82 2 3 8 -6 10
-29 7 -50 -7 -79 14 -99 71 -20 55 -24 152 -9 204 22 76 82 102 141 60z m3713
-103 c-30 -13 -49 -45 -57 -96 -2 -14 -5 -4 -6 22 -1 39 3 50 25 67 15 12 36
21 48 21 17 -1 15 -3 -10 -14z m97 4 c10 -6 19 -16 19 -22 0 -7 -4 -7 -13 1
-21 16 -28 1 -12 -23 17 -23 20 -60 5 -51 -5 3 -10 -1 -10 -10 0 -9 5 -13 10
-10 19 12 10 -14 -16 -44 -32 -38 -66 -40 -99 -6 -31 30 -33 82 -5 117 32 42
57 42 85 0 18 -27 25 -32 25 -18 0 11 -7 28 -17 38 -13 14 -13 18 -2 18 11 0
11 2 -1 10 -21 14 5 13 31 0z m-172 -47 c-2 -24 -2 -25 -6 -5 -2 12 -8 22 -13
22 -4 0 -84 -25 -178 -55 -98 -31 -231 -65 -314 -80 -79 -14 -151 -27 -160
-29 -10 -2 -18 0 -18 5 0 5 11 9 25 9 50 0 320 62 454 104 213 68 212 67 210
29z m-2 -135 c-2 -13 -4 -3 -4 22 0 25 2 35 4 23 2 -13 2 -33 0 -45z m-257 37
c-14 -17 -40 -20 -40 -6 0 5 10 12 23 14 12 2 24 5 26 6 2 0 -2 -6 -9 -14z
m-63 -115 c1 -62 -1 -88 -7 -75 -5 11 -9 52 -9 92 -1 59 -4 72 -18 77 -11 3
-7 4 7 3 25 -2 25 -3 27 -97z m-440 54 c-8 -8 -158 -36 -163 -31 -3 2 28 11
68 20 84 17 104 19 95 11z m206 -11 c-7 -2 -19 -2 -25 0 -7 3 -2 5 12 5 14 0
19 -2 13 -5z m174 1 c-3 -3 -12 -4 -19 -1 -8 3 -5 6 6 6 11 1 17 -2 13 -5z
m-254 -11 c-7 -2 -21 -2 -30 0 -10 3 -4 5 12 5 17 0 24 -2 18 -5z m194 1 c-3
-3 -12 -4 -19 -1 -8 3 -5 6 6 6 11 1 17 -2 13 -5z m-264 -11 c-7 -2 -21 -2
-30 0 -10 3 -4 5 12 5 17 0 24 -2 18 -5z m110 -10 c-7 -2 -21 -2 -30 0 -10 3
-4 5 12 5 17 0 24 -2 18 -5z m-70 -10 c-7 -2 -21 -2 -30 0 -10 3 -4 5 12 5 17
0 24 -2 18 -5z m477 -23 c-8 -5 -19 -10 -25 -10 -5 0 -3 5 5 10 8 5 20 10 25
10 6 0 3 -5 -5 -10z m-50 -20 c-8 -5 -19 -10 -25 -10 -5 0 -3 5 5 10 8 5 20
10 25 10 6 0 3 -5 -5 -10z m-373 -106 c-3 -3 -12 -4 -19 -1 -8 3 -5 6 6 6 11
1 17 -2 13 -5z m-44 -11 c-7 -2 -19 -2 -25 0 -7 3 -2 5 12 5 14 0 19 -2 13 -5z
m-44 -7 c-12 -10 -60 -16 -54 -6 3 5 18 10 32 10 15 0 24 -2 22 -4z m-954
-144 c26 -18 50 -46 68 -82 15 -30 25 -44 22 -30 l-6 25 15 -25 c15 -25 22
-59 9 -47 -3 4 -11 -3 -17 -15 -16 -31 -40 -34 -54 -6 -6 13 -11 18 -11 12 -1
-7 7 -21 17 -33 19 -23 62 -20 62 5 0 7 5 16 12 20 21 13 2 -131 -26 -191 -33
-73 -95 -119 -150 -112 -50 7 -103 50 -143 117 -87 144 -58 327 60 380 50 23
88 18 142 -18z"/>
<path d="M3290 1689 c-36 -11 -81 -22 -100 -25 -27 -4 -57 -22 -47 -30 1 -1
40 6 87 15 47 10 78 20 70 23 -11 5 -9 7 6 7 11 1 29 8 40 16 24 18 23 18 -56
-6z"/>
<path d="M3073 1639 c1 -6 -4 -14 -10 -16 -7 -3 -13 0 -13 6 0 12 -29 14 -56
4 -16 -6 -16 -7 2 -14 16 -6 15 -8 -8 -8 -16 -1 -28 4 -28 9 0 12 -3 12 -250
-35 -211 -41 -231 -46 -160 -39 30 3 111 17 180 31 71 15 155 25 195 25 65 -1
168 13 189 25 9 6 -13 23 -31 23 -7 0 -12 -5 -10 -11z"/>
<path d="M2825 1574 l-50 -14 49 6 c54 6 108 23 71 22 -11 0 -42 -6 -70 -14z"/>
<path d="M3055 1561 c6 -5 117 -57 247 -115 130 -58 287 -130 348 -161 62 -31
114 -54 117 -52 6 7 -290 151 -497 242 -204 90 -229 100 -215 86z"/>
<path d="M2733 1553 c9 -2 23 -2 30 0 6 3 -1 5 -18 5 -16 0 -22 -2 -12 -5z"/>
<path d="M2800 1536 c-52 -13 -113 -27 -135 -31 -24 -5 -33 -10 -22 -12 21 -5
267 47 282 59 15 13 -24 8 -125 -16z"/>
<path d="M2678 1543 c6 -2 18 -2 25 0 6 3 1 5 -13 5 -14 0 -19 -2 -12 -5z"/>
<path d="M2344 1533 l-80 -4 4 -29 c2 -17 8 -32 12 -35 8 -5 241 42 249 51 2
2 0 4 -6 4 -13 0 -194 -39 -212 -45 -14 -6 -31 11 -31 31 0 6 24 11 58 12 31
1 80 6 107 11 54 9 47 10 -101 4z"/>
<path d="M2623 1533 c9 -2 23 -2 30 0 6 3 -1 5 -18 5 -16 0 -22 -2 -12 -5z"/>
<path d="M2548 1523 c7 -3 16 -2 19 1 4 3 -2 6 -13 5 -11 0 -14 -3 -6 -6z"/>
<path d="M3830 1231 c0 -16 30 -41 49 -41 10 0 24 7 32 16 10 13 10 17 -2 25
-19 12 -79 12 -79 0z m59 -10 c8 -5 9 -11 3 -15 -13 -8 -42 3 -42 15 0 11 21
11 39 0z"/>
<path d="M580 1667 c0 -18 32 -47 51 -46 8 0 4 4 -8 9 -24 10 -31 30 -11 30 6
0 20 -7 30 -17 10 -9 21 -13 26 -9 11 12 -37 46 -64 46 -13 0 -24 -6 -24 -13z"/>
<path d="M339 1523 c-13 -16 -12 -17 4 -4 9 7 17 15 17 17 0 8 -8 3 -21 -13z"/>
<path d="M1211 1621 c-23 -42 -14 -59 41 -76 67 -20 91 -19 111 3 28 30 20 40
-45 61 -35 10 -71 22 -80 26 -11 4 -20 0 -27 -14z m100 -38 c16 -3 29 -10 29
-16 0 -10 -118 -2 -129 9 -11 10 24 24 48 19 13 -3 36 -9 52 -12z"/>
<path d="M1220 1485 c0 -18 45 -49 60 -40 18 11 11 31 -15 43 -34 16 -45 15
-45 -3z"/>
<path d="M542 1281 c-11 -7 -11 -9 2 -14 10 -4 16 -1 16 8 0 17 -1 17 -18 6z"/>
<path d="M486 1261 c-9 -10 -19 -34 -23 -53 -5 -33 -3 -36 27 -47 41 -14 43
-14 35 2 -4 6 3 1 15 -13 15 -16 20 -33 18 -52 -5 -30 6 -38 16 -12 10 27 7
40 -22 77 -25 31 -30 33 -39 19 -8 -14 -13 -15 -25 -4 -14 12 -14 62 1 62 3 0
12 9 19 20 15 25 1 26 -22 1z"/>
<path d="M591 1239 c0 -8 4 -22 8 -32 6 -16 9 -17 19 -4 10 11 8 18 -8 32 -15
14 -20 15 -19 4z"/>
<path d="M562 1195 c0 -16 2 -22 5 -12 2 9 2 23 0 30 -3 6 -5 -1 -5 -18z"/>
<path d="M621 1156 c-11 -13 -11 -20 -3 -28 15 -15 24 -5 20 23 -3 21 -4 21
-17 5z"/>
<path d="M462 1145 c-1 -11 3 -27 8 -35 5 -8 10 -11 10 -7 0 4 10 3 21 -4 23
-12 39 0 39 30 0 12 -3 11 -12 -2 -17 -22 -56 -12 -61 17 -4 19 -4 19 -5 1z"/>
<path d="M470 1063 c0 -11 7 -26 15 -33 25 -21 29 -3 6 26 -19 24 -21 25 -21
7z"/>
<path d="M530 1010 c0 -19 3 -21 12 -12 9 9 9 15 0 24 -9 9 -12 7 -12 -12z"/>
<path d="M4273 1105 c0 -27 2 -38 4 -22 2 15 2 37 0 50 -2 12 -4 0 -4 -28z"/>
<path d="M2460 630 c-14 -4 -19 -8 -12 -9 6 -1 13 -16 13 -33 l2 -33 4 30 c3
17 9 36 15 43 6 6 9 12 7 11 -2 -1 -15 -5 -29 -9z"/>
<path d="M2398 593 c-29 -30 -48 -72 -48 -104 0 -16 2 -17 13 -7 8 7 12 20 9
30 -3 11 1 18 10 18 7 0 21 20 30 45 10 25 16 45 14 45 -1 0 -14 -12 -28 -27z"/>
<path d="M2526 604 c-3 -9 -4 -19 -1 -22 3 -3 5 1 5 9 0 12 2 12 10 -1 5 -8
12 -11 16 -7 4 4 1 14 -8 23 -14 14 -16 14 -22 -2z"/>
<path d="M2516 561 c-3 -5 1 -11 9 -15 8 -3 15 -1 15 4 0 13 -18 22 -24 11z"/>
<path d="M2582 548 c-16 -16 -15 -28 3 -28 8 0 15 -7 15 -16 0 -9 5 -12 12 -8
8 5 4 13 -11 25 -19 16 -20 18 -4 21 11 2 14 6 7 10 -6 4 -16 2 -22 -4z"/>
<path d="M2466 454 c-39 -38 -5 -99 43 -78 13 5 11 8 -8 13 -13 4 -29 14 -35
24 -9 15 -7 21 9 33 27 20 46 14 65 -19 14 -25 13 -30 -3 -59 -19 -33 -19 -33
1 -15 20 18 20 18 26 0 3 -10 4 4 2 30 -6 75 -59 113 -100 71z"/>
<path d="M2491 424 c0 -11 3 -14 6 -6 3 7 2 16 -1 19 -3 4 -6 -2 -5 -13z"/>
<path d="M2350 411 c0 -40 21 -79 46 -84 l25 -4 -22 23 c-16 17 -18 24 -8 24
8 1 3 7 -11 15 l-25 13 28 11 c35 14 34 21 -3 21 -23 0 -30 -5 -30 -19z"/>
<path d="M2613 354 c-3 -8 -1 -20 6 -27 8 -8 11 -7 11 6 0 9 5 17 11 17 6 0 8
-9 4 -21 -5 -16 -3 -20 6 -17 22 7 16 40 -9 49 -17 6 -24 5 -29 -7z"/>
<path d="M2407 298 c-11 -9 -14 -18 -8 -27 8 -12 14 -10 35 6 21 17 23 22 10
27 -20 8 -17 8 -37 -6z"/>
<path d="M2598 279 c-24 -14 -23 -39 2 -39 15 0 20 7 20 25 0 28 1 28 -22 14z"/>
<path d="M2447 244 c-9 -10 2 -24 19 -24 8 0 14 7 14 15 0 15 -21 21 -33 9z"/>
<path d="M2505 231 c-7 -13 32 -34 46 -26 7 5 6 11 -2 21 -13 16 -35 18 -44 5z"/>
<path d="M4335 909 c-382 -157 -416 -167 -855 -243 -80 -14 -174 -31 -208 -38
-51 -9 -85 -9 -170 1 -177 22 -192 23 -192 14 0 -5 30 -15 68 -22 37 -7 99
-19 137 -27 39 -7 93 -11 120 -8 69 7 158 25 170 36 13 11 27 10 20 -2 -3 -6
4 -10 17 -10 17 0 19 3 9 9 -11 7 -11 10 0 17 7 4 14 3 17 -4 2 -7 13 -12 25
-12 18 0 19 2 7 10 -10 7 0 8 35 5 39 -3 43 -2 20 4 -21 6 -24 9 -10 10 11 1
38 3 60 6 35 4 36 3 10 -4 l-30 -9 30 0 c17 0 48 6 70 13 l40 14 -40 -4 c-38
-4 -38 -4 10 9 55 16 109 20 65 6 -23 -7 -23 -8 -3 -9 12 -1 29 2 38 5 13 6
14 9 3 16 -8 6 3 7 31 2 33 -5 42 -3 36 6 -5 9 -2 10 12 6 29 -9 278 67 405
124 98 45 157 76 106 57 -47 -18 -48 -15 -3 7 54 27 86 34 45 11 -14 -8 -21
-14 -17 -15 13 0 51 22 62 36 17 21 70 27 85 9 11 -13 9 -15 -11 -15 -19 0
-21 -2 -9 -10 23 -14 9 -23 -155 -95 -178 -79 -334 -134 -510 -180 -144 -38
-516 -110 -617 -121 -81 -8 -172 7 -282 47 -74 27 -83 33 -80 52 3 12 -3 5
-12 -15 -15 -35 -15 -40 3 -75 10 -20 30 -45 44 -56 39 -28 172 -57 262 -57
91 0 321 25 421 46 72 15 82 13 88 -20 1 -11 9 -21 16 -24 11 -3 12 0 3 16
-12 23 -14 64 -5 109 6 33 10 34 184 78 80 20 280 85 343 110 15 6 17 0 17
-60 0 -36 -5 -75 -10 -86 -13 -23 -102 -69 -181 -94 -37 -12 -56 -23 -55 -33
0 -8 -5 -17 -12 -19 -7 -3 -10 1 -6 11 7 19 -13 21 -53 4 -38 -17 -39 -18 -23
-28 12 -8 11 -10 -5 -10 -19 -1 -19 -1 -2 -11 25 -15 118 6 189 42 32 16 85
55 119 87 49 46 63 66 68 97 6 37 11 42 125 110 148 88 196 131 196 172 0 38
-36 73 -76 72 -16 0 -105 -32 -199 -70z m-5 -43 c0 -6 -172 -77 -177 -73 -3 4
155 75 170 76 4 1 7 -1 7 -3z m200 -27 c-37 -30 -222 -139 -236 -139 -6 0 -14
8 -17 19 -4 15 15 28 112 74 152 73 188 85 141 46z m-489 -85 c-25 -8 -47 -12
-49 -9 -5 5 56 23 78 23 8 0 -5 -6 -29 -14z m-341 -217 l0 -43 -92 -17 c-149
-27 -330 -47 -420 -47 -93 0 -218 28 -257 58 -24 18 -48 68 -38 78 3 3 49 -9
104 -26 152 -50 237 -50 493 -1 113 21 206 39 208 40 1 0 2 -18 2 -42z"/>
<path d="M2860 825 c0 -47 98 -75 121 -34 14 27 3 38 -47 50 -63 14 -74 12
-74 -16z m100 -5 c13 -9 13 -10 0 -10 -13 0 -13 -1 0 -10 11 -7 6 -10 -20 -10
-34 0 -60 14 -60 32 0 11 62 10 80 -2z"/>
<path d="M3166 773 c-4 -32 -8 -75 -10 -95 -4 -36 6 -50 19 -28 3 5 12 7 20 3
9 -3 37 -1 63 3 l47 8 -60 6 -60 5 -1 73 c-2 91 -10 102 -18 25z"/>
<path d="M4191 674 c7 -9 12 -34 10 -59 -3 -50 9 -63 34 -35 12 13 15 27 10
49 -4 17 -11 31 -17 31 -6 0 -8 7 -4 15 4 11 -2 15 -21 15 -22 0 -24 -2 -12
-16z m35 -71 c-10 -10 -19 5 -10 18 6 11 8 11 12 0 2 -7 1 -15 -2 -18z"/>
<path d="M4133 653 c-8 -3 -13 -25 -13 -58 0 -54 -8 -65 -47 -65 -13 0 -15 10
-11 50 5 48 4 50 -16 44 -43 -13 -64 -33 -71 -71 -9 -48 -21 -63 -51 -63 -26
0 -30 10 -12 28 9 9 9 12 0 12 -18 0 -15 28 4 38 21 12 4 23 -23 16 -17 -5
-19 -12 -15 -56 3 -36 1 -53 -9 -59 -11 -7 -15 2 -19 44 l-5 52 -42 3 -43 3 0
-65 c0 -42 -4 -66 -12 -69 -7 -2 -10 -7 -7 -11 3 -3 35 2 70 13 35 11 115 33
178 51 103 28 204 68 174 70 -18 0 -28 67 -13 85 12 15 6 18 -17 8z m-97 -129
c-3 -8 -14 -14 -24 -14 -17 0 -18 5 -12 41 11 57 34 71 38 23 2 -20 1 -42 -2
-50z m-208 -8 c3 -39 -11 -66 -34 -66 -18 0 -20 96 -1 103 23 10 32 0 35 -37z"/>
</g>
</svg>
