<?xml version="1.0" encoding="iso-8859-1"?>
<!-- Uploaded to: SVG Repo, www.svgrepo.com, Generator: SVG Repo Mixer Tools -->
<svg fill="#000000" height="800px" width="800px" version="1.1" id="Layer_1" xmlns="http://www.w3.org/2000/svg" xmlns:xlink="http://www.w3.org/1999/xlink" 
	 viewBox="0 0 512 512" xml:space="preserve">
<g transform="translate(1 1)">
	<g>
		<g>
			<path d="M476.867-1H33.987C14.36-1-1,14.36-1,33.987v468.48c0,5.12,3.413,8.533,8.533,8.533H50.2h409.6h42.667
				c5.12,0,8.533-3.413,8.533-8.533V33.987C511,14.36,495.64-1,476.867-1z M451.267,246.467H58.733V229.4h392.533V246.467z
				 M58.733,263.533h392.533V280.6H58.733V263.533z M459.8,178.2H50.2v-34.133h409.6V178.2z M451.267,195.267v17.067H58.733v-17.067
				H451.267z M58.733,493.933V297.667h392.533v196.267H58.733z M493.933,493.933h-25.6v-204.8v-93.867
				c5.12,0,8.533-3.413,8.533-8.533v-51.2c0-5.12-3.413-8.533-8.533-8.533H41.667c-5.12,0-8.533,3.413-8.533,8.533v51.2
				c0,5.12,3.413,8.533,8.533,8.533v93.867v204.8h-25.6V33.987c0-10.24,7.68-17.92,17.92-17.92h442.027
				c10.24,0,17.92,7.68,17.92,17.92V493.933z"/>
			<path d="M374.467,33.133H135.533c-5.12,0-8.533,3.413-8.533,8.533V101.4c0,5.12,3.413,8.533,8.533,8.533h238.933
				c5.12,0,8.533-3.413,8.533-8.533V41.667C383,36.547,379.587,33.133,374.467,33.133z M365.933,92.867H144.067V50.2h221.867V92.867
				z"/>
			<path d="M370.2,373.613h-18.176L319,327.533c-5.12-7.68-13.653-11.947-23.04-11.947h-36.925c-1.169-0.55-2.525-0.853-4.035-0.853
				s-2.865,0.304-4.035,0.853H214.04c-9.387,0-17.92,4.267-23.04,11.947l-33.024,46.08h-17.323c-12.8,0-22.187,10.24-22.187,22.187
				v33.28c0,12.8,10.24,22.187,22.187,22.187h13.034c3.814,14.679,17.216,25.6,33.046,25.6c15.83,0,29.232-10.921,33.046-25.6
				h70.442c3.814,14.679,17.216,25.6,33.046,25.6c15.83,0,29.232-10.921,33.046-25.6h13.034c12.8,0,22.187-9.387,23.04-22.187V395.8
				C392.387,383,382.147,373.613,370.2,373.613z M304.493,336.067l26.7,37.547h-67.66V331.8h31.573
				C299.373,331.8,302.787,333.507,304.493,336.067z M203.8,336.067c2.56-2.56,5.973-4.267,9.387-4.267h33.28v41.813h-68.532
				L203.8,336.067z M186.733,459.8c-9.387,0-17.067-7.68-17.067-17.067s7.68-17.067,17.067-17.067s17.067,7.68,17.067,17.067
				S196.12,459.8,186.733,459.8z M323.267,459.8c-9.387,0-17.067-7.68-17.067-17.067s7.68-17.067,17.067-17.067
				s17.067,7.68,17.067,17.067S332.653,459.8,323.267,459.8z M375.32,429.08c0,2.56-2.56,5.12-5.12,5.12h-13.653
				c-4.267-14.507-15.36-25.6-31.573-25.6c-0.311,0-0.62,0.012-0.929,0.02c-0.259-0.006-0.517-0.02-0.778-0.02
				c-15.829,0-29.232,10.921-33.046,25.6h-69.354c-4.267-14.507-17.067-25.6-33.28-25.6c-0.156,0-0.309,0.008-0.464,0.01
				c-0.13-0.001-0.258-0.01-0.389-0.01c-15.829,0-29.232,10.921-33.046,25.6h-13.034c-2.56,0-5.12-2.56-5.12-5.12V395.8
				c0-2.56,2.56-5.12,5.12-5.12h16.642c1.132,0.538,2.405,0.853,3.838,0.853h187.733c1.433,0,2.706-0.315,3.838-0.853H370.2
				c2.56,0,5.12,2.56,5.12,5.12V429.08z"/>
		</g>
	</g>
</g>
</svg>